#!OML:ASF F:\VICON\USERDATA\INSTALL\rory3\rory3.ASF
:FULLY-SPECIFIED
:DEGREES
73
root 0.6094790622202989 18.071636577741273 7.833000633843625 4.484862603056859 -4.455363082931233 -4.386781868632596
lfemur -30.479669359686966 4.58430339808754 -14.865013326623622
ltibia 91.28448514741348
lfoot 11.383960794760991 -10.722207683017613
ltoes -32.526281710542854
rfemur -11.157921827825852 3.7282409538099106 32.388747477915736
rtibia 38.071759370272616
rfoot 9.223284436539446 -4.719458610626312
rtoes -3.4808166743176017
lowerback 13.910096948679787 1.9852619944129053 4.257356287413544
upperback -1.2052688921992087 3.484499127796541 1.6447025155805242
thorax -9.17203217623733 1.5891457460353169 -1.8176079381023185
lowerneck -17.452678366277954 -5.012139370459813 -2.460395913394699
upperneck 8.685848505915684 -6.962590869479607 5.182557235705414
head 6.436870264046647 -2.97403310019269 1.3134242482990037
lclavicle -1.3367475555310489e-15 -2.7589793148666224e-15
lhumerus -40.75238786924051 -8.958848792271008 87.92925506497431
lradius 119.40496552682777
lwrist 31.318835704370716
lhand -22.145773734238137 3.3193393805925906
lfingers 7.12502
lthumb 3.922374410903269 32.85744463180489
rclavicle -1.3367475555026625e-15 -2.7589793148483145e-15
rhumerus -59.52804326756244 6.173557638099159 -95.43453034272315
rradius 118.19725216029096
rwrist -23.386894629991797
rhand -19.091506536893363 43.60102840922236
rfingers 7.12502
rthumb 6.79171682912791 14.016595459680833
74
root 0.6184223490800627 18.070016877334734 8.25854329632548 4.368765599416817 -4.34709359394084 -4.35031702815313
lfemur -31.374421934462656 4.40511072984007 -15.052873470624036
ltibia 90.32843475040758
lfoot 11.460344963312895 -10.094733399402335
ltoes -32.16159809505581
rfemur -9.599545786294529 3.8956768325363598 32.46485835156309
rtibia 38.163420936528354
rfoot 9.100636661254244 -4.678220768970799
rtoes -4.877130023433974
lowerback 13.858667100789516 2.0504697963225587 4.271035507257382
upperback -1.2368640063226928 3.5653822322946453 1.4765135954946045
thorax -8.97431899719549 1.6237484731530647 -2.0150632288856944
lowerneck -17.174790233267675 -5.080203474792317 -2.4921516366614127
upperneck 8.625307816834104 -7.062509776561176 5.228779771329718
head 6.354720427332252 -3.0266016210406654 1.3338483946943558
lclavicle -1.336747555526461e-15 -2.7589793148639403e-15
lhumerus -40.90499385413886 -9.424882033926002 88.17274959966991
lradius 118.2363996016994
lwrist 31.200823174267235
lhand -22.11499495448441 3.1955160846755915
lfingers 7.12502
lthumb 4.1598654752428335 33.1396141964145
rclavicle -1.3367475554985545e-15 -2.7589793148460603e-15
rhumerus -59.41594806698107 5.92711563080232 -95.26592580985445
rradius 118.09674630194941
rwrist -23.24468328062855
rhand -19.24676788930588 43.52193672498734
rfingers 7.12502
rthumb 6.738155682413099 13.96945085860688
75
root 0.6223532893180356 18.05800619965539 8.60096245641563 4.237071134890991 -4.201752970503659 -4.285864387518985
lfemur -32.15644428052099 4.207478482722497 -15.289336994589036
ltibia 89.04638222899166
lfoot 12.051711897223557 -9.465695901348322
ltoes -31.092141415006786
rfemur -8.103257567826049 4.079759221234464 32.512544134674485
rtibia 38.476525059616066
rfoot 8.829696107957908 -4.760876764313551
rtoes -5.592382361253897
lowerback 13.843524848393194 2.102487107666518 4.22851352006046
upperback -1.2527625423995743 3.6209959036548085 1.309869637935619
thorax -8.804755990165289 1.640748875057418 -2.150302870105303
lowerneck -16.965226159874984 -5.154334724361945 -2.5262844239424513
upperneck 8.56840501519531 -7.163463461515737 5.286826701474146
head 6.2647361704068985 -3.0793480143960794 1.357587264564616
lclavicle -1.3367475555243587e-15 -2.7589793148632595e-15
lhumerus -41.017463932969605 -9.810570302593412 88.42457242841029
lradius 116.99263031951602
lwrist 31.03143074735858
lhand -22.18250059353459 3.0715480278127254
lfingers 7.12502
lthumb 4.213395562701357 33.14966250997423
rclavicle -1.3367475554928962e-15 -2.7589793148426623e-15
rhumerus -59.23043397064919 5.724143321508847 -95.1166267101523
rradius 117.97096357328387
rwrist -23.193418645323256
rhand -19.347506869871378 43.458840117307695
rfingers 7.12502
rthumb 6.7131081842495055 13.852736496038567
76
root 0.6261125983878891 18.043074744171683 8.960586428011238 4.09254078138877 -4.0327343136670795 -4.190455475492841
lfemur -32.805499281487776 3.9944301741104664 -15.593687789225205
ltibia 87.46267576898396
lfoot 12.651167692562526 -9.198771637440808
ltoes -30.14036609342467
rfemur -6.649671845213986 4.249674668782394 32.51836590789949
rtibia 39.02552405081532
rfoot 8.513785292367011 -4.952848260234513
rtoes -6.262926277092173
lowerback 13.834218929410941 2.1423617543888764 4.1495935300563325
upperback -1.2449050535911153 3.6496465255605797 1.1449761918250396
thorax -8.588754004737817 1.6563700021333783 -2.23237252234763
lowerneck -16.890607534168154 -5.238761321723937 -2.5592828451117358
upperneck 8.539151321978222 -7.28229051606875 5.3590620729135345
head 6.194167316377669 -3.1375658684109484 1.3835985718261594
lclavicle -1.3367475555246254e-15 -2.7589793148642475e-15
lhumerus -41.032742005314994 -10.149570631657507 88.67337590496771
lradius 115.67216460884856
lwrist 30.919518797807363
lhand -22.436152244063585 2.9040439299789917
lfingers 7.12502
lthumb 4.032923995997258 32.82811255034843
rclavicle -1.3367475554883557e-15 -2.758979314839943e-15
rhumerus -59.005427796700204 5.545269461524977 -94.99065710983476
rradius 117.83264255646823
rwrist -23.051229021242325
rhand -19.403308729296135 43.32342647942213
rfingers 7.12502
rthumb 6.635821959226912 13.559505614993451
